<?xml version="1.0" standalone="no"?>
<!DOCTYPE svg PUBLIC "-//W3C//DTD SVG 1.1//EN" "http://www.w3.org/Graphics/SVG/1.1/DTD/svg11.dtd" >
<svg xmlns="http://www.w3.org/2000/svg">
<metadata>
This is a custom SVG webfont generated by Font Squirrel.
Designer    : Robby Woodard
</metadata>
<defs>
<font id="webfontJDk6cDiW" horiz-adv-x="1187" >
<font-face units-per-em="2048" ascent="1536" descent="-512" />
<missing-glyph horiz-adv-x="450" />
<glyph unicode=" "  horiz-adv-x="450" />
<glyph unicode="&#x09;" horiz-adv-x="450" />
<glyph unicode="&#xa0;" horiz-adv-x="450" />
<glyph unicode="!" horiz-adv-x="608" d="M485 410h-321v901h321v-901zM485 0h-321v287h321v-287z" />
<glyph unicode="&#x22;" horiz-adv-x="921" d="M395 983h-272v512h272v-512zM799 983h-273v512h273v-512z" />
<glyph unicode="#" horiz-adv-x="1126" d="M1044 492h-163v-328h-252v328h-133v-328h-252v328h-162v184h162v123h-162v184h162v328h252v-328h133v328h252v-328h163v-184h-163v-123h163v-184zM629 676v123h-133v-123h133z" />
<glyph unicode="$" horiz-adv-x="942" d="M860 492q0 -68 -48 -116t-116 -48h-84v-185h-272v185h-223v184h446v225h-317q-68 0 -116 48.5t-48 115.5v246q0 68 48 116t116 48h94v184h272v-184h213v-185h-446v-204h317q68 0 116 -48.5t48 -115.5v-266z" />
<glyph unicode="%" horiz-adv-x="2007" d="M1925 164q0 -68 -48 -116t-116 -48h-452q-68 0 -116 48t-48 116v246q0 68 48 115.5t116 47.5h452q68 0 116 -48t48 -115v-246zM1628 184v205h-186v-205h186zM1511 1311l-675 -1311h-340l678 1311h337zM862 901q0 -68 -48 -116t-116 -48h-452q-68 0 -116 48.5t-48 115.5 v246q0 68 48 116t116 48h452q68 0 116 -48.5t48 -115.5v-246zM565 922v204h-186v-204h186z" />
<glyph unicode="&#x26;" horiz-adv-x="1433" d="M1331 328q0 -137 -95 -232.5t-232 -95.5h-150v-246h-297v246h-147q-137 0 -232.5 95t-95.5 233v164q0 137 95 232t233 95h147v328q0 68 48 116t116 48h446q68 0 116 -48.5t48 -115.5v-348q0 -68 -48 -116t-116 -48h-313v-451h57q51 0 87 41t36 103v84h297v-84zM1034 819 v307h-180v-307h180zM557 184v451h-55q-51 0 -87 -41t-36 -102v-164q0 -61 36 -102.5t87 -41.5h55z" />
<glyph unicode="'" horiz-adv-x="518" d="M395 983h-272v512h272v-512z" />
<glyph unicode="(" horiz-adv-x="696" d="M635 -410h-184q-135 0 -231.5 96.5t-96.5 231.5v1249q0 135 96 231.5t232 96.5h184v-184h-60q-53 0 -91 -38t-38 -93v-1274q0 -55 38 -93t91 -38h60v-185z" />
<glyph unicode=")" horiz-adv-x="696" d="M573 -82q0 -135 -96 -231.5t-231 -96.5h-185v185h60q53 0 91 37.5t38 93.5v1274q0 55 -38 93t-91 38h-60v184h185q135 0 231 -96t96 -232v-1249z" />
<glyph unicode="*" horiz-adv-x="819" d="M754 1071l-101 -172l-143 86v-168h-197v168l-145 -86l-100 172l145 86l-145 82l100 172l145 -86v170h197v-170l143 86l101 -172l-146 -82z" />
<glyph unicode="+" horiz-adv-x="1064" d="M942 444h-280v-280h-259v280h-280v256h280v283h259v-283h280v-256z" />
<glyph unicode="," horiz-adv-x="593" d="M524 287l-217 -697h-307l219 697h305z" />
<glyph unicode="-" horiz-adv-x="696" d="M594 471h-492v205h492v-205z" />
<glyph unicode="." horiz-adv-x="614" d="M471 0h-328v287h328v-287z" />
<glyph unicode="/" horiz-adv-x="1105" d="M1061 1311l-676 -1311h-340l678 1311h338z" />
<glyph unicode="0" d="M1085 328q0 -137 -95 -232.5t-232 -95.5h-328q-135 0 -231.5 95t-96.5 233v655q0 135 96.5 231.5t231.5 96.5h328q137 0 232 -96.5t95 -231.5v-655zM766 334v641q0 63 -39 107t-92 44h-82q-53 0 -91 -44t-38 -107v-641q0 -63 38 -106.5t91 -43.5h82q55 0 93 43.5 t38 106.5z" />
<glyph unicode="1" horiz-adv-x="655" d="M532 0h-321v1126h-164v185h485v-1311z" />
<glyph unicode="2" horiz-adv-x="1126" d="M963 186v-186h-840v438q0 137 95 232.5t233 95.5h102q55 0 93 43t38 106v60q0 63 -39 107t-92 44h-391v185h514q137 0 232.5 -96.5t95.5 -231.5v-78q0 -137 -95.5 -232t-232.5 -95h-103q-55 0 -93 -41t-38 -105v-246h521z" />
<glyph unicode="3" horiz-adv-x="1044" d="M942 328q0 -135 -96 -231.5t-232 -96.5h-512v184h390q53 0 91 44t38 108v151q0 63 -38 107.5t-91 44.5h-390v180h424v307h-424v185h562q68 0 115.5 -48.5t47.5 -115.5v-420q115 -100 115 -248v-151z" />
<glyph unicode="4" horiz-adv-x="1249" d="M1208 307h-164v-307h-321v307h-723l520 1004h344l-424 -819h283v327h321v-327h164v-185z" />
<glyph unicode="5" horiz-adv-x="1064" d="M963 328q0 -137 -95.5 -232.5t-232.5 -95.5h-533v184h410q55 0 93 43t38 107v149q0 63 -39 107.5t-92 44.5h-410v676h809v-185h-489v-307h213q137 0 232.5 -96t95.5 -231v-164z" />
<glyph unicode="6" d="M1085 328q0 -137 -95 -232.5t-232 -95.5h-328q-135 0 -231.5 95t-96.5 233v655q0 135 96.5 231.5t231.5 96.5h582v-185h-459q-53 0 -91 -44t-38 -107v-158h334q137 0 232 -96t95 -232v-161zM766 334v147q0 63 -39 107.5t-92 44.5h-211v-299q0 -63 38 -106.5t91 -43.5h82 q55 0 93 43.5t38 106.5z" />
<glyph unicode="7" d="M1188 1311l-676 -1311h-344l580 1126h-666v185h1106z" />
<glyph unicode="8" d="M1085 328q0 -135 -96 -231.5t-231 -96.5h-328q-135 0 -231.5 96.5t-96.5 231.5v164q0 117 74 206v449q0 68 48 116t116 48h508q68 0 116 -48.5t48 -115.5v-449q74 -94 73 -206v-164zM764 336v153q0 63 -38 107.5t-91 44.5h-82q-53 0 -91 -44t-38 -108v-153 q0 -63 38 -107.5t91 -44.5h82q53 0 91 44.5t38 107.5zM711 819v307h-234v-307h234z" />
<glyph unicode="9" d="M1085 328q0 -135 -96 -231.5t-231 -96.5h-582v184h459q53 0 91 44t38 108v158h-334q-137 0 -232.5 96t-95.5 231v162q0 137 95.5 232.5t232.5 95.5h328q135 0 231 -95.5t96 -232.5v-655zM764 678v299q0 63 -38 106t-91 43h-82q-55 0 -93 -43t-38 -106v-148q0 -63 39 -107 t92 -44h211z" />
<glyph unicode=":" horiz-adv-x="655" d="M492 616h-328v287h328v-287zM492 123h-328v287h328v-287z" />
<glyph unicode=";" horiz-adv-x="655" d="M492 616h-328v287h328v-287zM492 410l-207 -656h-328l209 656h326z" />
<glyph unicode="&#x3c;" horiz-adv-x="942" d="M840 172l-174 -184l-666 665l666 666l174 -182l-475 -484z" />
<glyph unicode="=" horiz-adv-x="1064" d="M942 647h-819v256h819v-256zM942 256h-819v256h819v-256z" />
<glyph unicode="&#x3e;" horiz-adv-x="942" d="M942 653l-666 -665l-174 184l476 481l-476 484l174 182z" />
<glyph unicode="?" horiz-adv-x="921" d="M840 797q0 -68 -48.5 -115t-115.5 -47h-144v-227h-327v247q0 68 47 116t115 48h145v307h-389v185h553q68 0 116 -48.5t48 -115.5v-350zM532 0h-327v287h327v-287z" />
<glyph unicode="@" horiz-adv-x="1843" d="M1720 328q0 -68 -48 -116t-116 -48h-819q-68 0 -116 48t-48 116v327q0 68 48.5 116t115.5 48h533v-471h164v471q0 70 -48.5 117t-115.5 47h-533q-137 0 -232 -95t-95 -233v-325q0 -137 95 -233.5t232 -96.5h981v-164h-1104q-205 0 -348 144.5t-143 347.5v327 q0 205 143.5 348.5t347.5 143.5h779q135 0 231 -95.5t96 -232.5v-491zM1004 348v287h-185v-287h185z" />
<glyph unicode="A" d="M1065 0h-322v471h-299v-471h-321v983q0 137 96 232.5t232 95.5h286q135 0 231.5 -95.5t96.5 -232.5v-983zM743 655v320q0 63 -37.5 107t-91.5 44h-41q-53 0 -91 -44t-38 -107v-320h299z" />
<glyph unicode="B" d="M1106 328q0 -135 -96.5 -231.5t-231.5 -96.5h-655v1311h704q68 0 116 -48.5t48 -115.5v-430q115 -100 115 -248v-141zM690 809v317h-246v-317h246zM784 336v141q0 63 -37.5 107.5t-91.5 44.5h-211v-445h211q53 0 91 44.5t38 107.5z" />
<glyph unicode="C" horiz-adv-x="1146" d="M1044 901h-321v225h-170q-53 0 -91 -44t-38 -107v-483q0 -129 86 -218.5t207 -89.5h327v-184h-450q-203 0 -347.5 144.5t-144.5 347.5v491q0 137 96.5 232.5t231.5 95.5h377q98 0 167.5 -70t69.5 -168v-172z" />
<glyph unicode="D" horiz-adv-x="1208" d="M1106 492q0 -205 -144.5 -348.5t-347.5 -143.5h-491v1311h491q203 0 347.5 -144.5t144.5 -347.5v-327zM784 492v327q0 129 -86 218t-206 89h-48v-942h48q121 0 206.5 89.5t85.5 218.5z" />
<glyph unicode="E" horiz-adv-x="1003" d="M901 0h-614q-68 0 -116 48t-48 116v1147h778v-185h-457v-348h457v-184h-457v-410h457v-184z" />
<glyph unicode="F" horiz-adv-x="983" d="M901 594h-457v-594h-321v1311h774v-185h-453v-348h457v-184z" />
<glyph unicode="G" horiz-adv-x="1167" d="M1044 0h-614q-135 0 -231.5 95t-96.5 233v491q0 203 144.5 347.5t347.5 144.5h450v-185h-327q-121 0 -207 -89t-86 -218v-483q0 -63 38 -107.5t91 -44.5h170v471h321v-655z" />
<glyph unicode="H" d="M1065 0h-322v594h-299v-594h-321v1311h321v-533h299v533h322v-1311z" />
<glyph unicode="I" horiz-adv-x="567" d="M444 0h-321v1311h321v-1311z" />
<glyph unicode="J" horiz-adv-x="737" d="M614 328q0 -135 -96 -231.5t-231 -96.5h-226v184h101q53 0 91 38t38 93v996h323v-983z" />
<glyph unicode="K" horiz-adv-x="1228" d="M1167 1311l-288 -545q100 -31 163.5 -117t63.5 -194v-455h-322v440q0 63 -37.5 107.5t-91.5 44.5h-211v-592h-321v1311h321v-533h103l280 533h340z" />
<glyph unicode="L" horiz-adv-x="839" d="M799 0h-676v1311h321v-1127h355v-184z" />
<glyph unicode="M" horiz-adv-x="1802" d="M1679 0h-321v995q0 63 -38 107.5t-91 44.5h-168v-1147h-322v1147h-295v-1147h-321v1311h1229q135 0 231 -96.5t96 -231.5v-983z" />
<glyph unicode="N" horiz-adv-x="1310" d="M1188 0h-236q-100 0 -141 78l-367 737v-815h-321v1311h235q100 0 142 -78l366 -731v809h322v-1311z" />
<glyph unicode="O" horiz-adv-x="1208" d="M1106 328q0 -137 -95.5 -232.5t-232.5 -95.5h-348q-135 0 -231.5 95t-96.5 233v655q0 135 96.5 231.5t231.5 96.5h348q137 0 232.5 -96.5t95.5 -231.5v-655zM786 334v641q0 63 -38.5 107t-92.5 44h-102q-53 0 -91 -44t-38 -107v-641q0 -63 38 -106.5t91 -43.5h102 q55 0 93 43.5t38 106.5z" />
<glyph unicode="P" horiz-adv-x="1085" d="M1024 799q0 -135 -95 -231.5t-233 -96.5h-254v-471h-319v1311h573q137 0 232.5 -95.5t95.5 -232.5v-184zM705 807v170q0 63 -38 106t-94 43h-131v-471h131q53 0 92.5 44.5t39.5 107.5z" />
<glyph unicode="Q" d="M1085 328q0 -137 -95 -232.5t-232 -95.5h-6v-410h-316v410h-6q-135 0 -231.5 95t-96.5 233v655q0 135 96.5 231.5t231.5 96.5h328q137 0 232 -96.5t95 -231.5v-655zM766 334v641q0 63 -39 107t-92 44h-82q-53 0 -91 -44t-38 -107v-641q0 -63 38 -106.5t91 -43.5h82 q55 0 93 43.5t38 106.5z" />
<glyph unicode="R" d="M1106 0h-322v442q0 63 -37.5 107.5t-91.5 44.5h-211v-594h-321v1311h704q68 0 116 -48.5t48 -115.5v-461q115 -100 115 -248v-438zM690 778v348h-246v-348h246z" />
<glyph unicode="S" horiz-adv-x="1085" d="M983 238q0 -98 -69.5 -168t-168.5 -70h-602v186h519v389h-322q-98 0 -168 70t-70 168v260q0 98 70 168t168 70h602v-185h-520v-360h323q98 0 168 -68.5t70 -167.5v-292z" />
<glyph unicode="T" horiz-adv-x="1024" d="M963 1126h-289v-1126h-322v1126h-291v185h902v-185z" />
<glyph unicode="U" d="M1065 328q0 -137 -96.5 -232.5t-231.5 -95.5h-286q-135 0 -231.5 95t-96.5 233v983h321v-977q0 -63 38 -106.5t91 -43.5h41q53 0 91 43t38 107v977h322v-983z" />
<glyph unicode="V" d="M1065 492q0 -205 -144.5 -348.5t-347.5 -143.5h-450v1311h321v-1127q123 0 211 89t88 219v819h322v-819z" />
<glyph unicode="W" horiz-adv-x="1802" d="M1679 328q0 -135 -96 -231.5t-231 -96.5h-901q-135 0 -231.5 96.5t-96.5 231.5v983h321v-996q0 -63 38 -107t91 -44h166v1147h322v-1147h168q53 0 91 44t38 107v996h321v-983z" />
<glyph unicode="X" d="M1065 0h-322v512q0 37 -23.5 59.5t-57.5 22.5h-136q-35 0 -58.5 -22.5t-23.5 -59.5v-512h-321v428q0 88 50 157.5t130 100.5q-80 31 -130 100.5t-50 157.5v367h321v-451q0 -37 24 -59.5t58 -22.5h136q35 0 58 22.5t23 59.5v451h322v-367q0 -88 -50 -157.5t-130 -100.5 q80 -31 130 -100.5t50 -157.5v-428z" />
<glyph unicode="Y" horiz-adv-x="1126" d="M1044 840q0 -133 -94 -228.5t-227 -99.5v-512h-322v512q-133 4 -226 99.5t-93 228.5v471h321v-465q0 -63 38 -106.5t91 -43.5h62q53 0 91 43t38 107v465h321v-471z" />
<glyph unicode="Z" d="M1147 1311l-641 -1127h532v-184h-997l639 1126h-530v185h997z" />
<glyph unicode="[" horiz-adv-x="737" d="M655 -412h-532v1907h532v-184h-211v-1538h211v-185z" />
<glyph unicode="\" horiz-adv-x="1105" d="M1061 0h-340l-676 1311h338z" />
<glyph unicode="]" horiz-adv-x="737" d="M614 -410h-532v185h211v1536h-211v184h532v-1905z" />
<glyph unicode="^" horiz-adv-x="962" d="M922 819h-322l-119 182l-119 -182h-321l321 492h236z" />
<glyph unicode="_" horiz-adv-x="1105" d="M1126 -348h-1146v184h1146v-184z" />
<glyph unicode="`" horiz-adv-x="819" d="M563 1147h-201l-219 348h201z" />
<glyph unicode="a" horiz-adv-x="1085" d="M963 0h-697q-68 0 -116 48t-48 116v266q0 68 48.5 116t115.5 48h400v205h-519v184h652q68 0 116 -48t48 -116v-819zM666 184v226h-267v-226h267z" />
<glyph unicode="b" horiz-adv-x="1105" d="M1004 328q0 -137 -95.5 -232.5t-232.5 -95.5h-553v1495h297v-512h256q137 0 232.5 -95t95.5 -233v-327zM707 328v327q0 61 -36 102.5t-87 41.5h-164v-615h164q51 0 87 41.5t36 102.5z" />
<glyph unicode="c" horiz-adv-x="1024" d="M922 655h-297v144h-103q-51 0 -87 -41t-36 -103v-327q0 -61 36 -102.5t87 -41.5h387v-184h-479q-137 0 -232.5 95t-95.5 233v327q0 137 95.5 232.5t232.5 95.5h328q68 0 116 -48t48 -116v-164z" />
<glyph unicode="d" horiz-adv-x="1105" d="M983 0h-553q-137 0 -232.5 95t-95.5 233v327q0 137 95.5 232.5t232.5 95.5h256v512h297v-1495zM686 184v615h-164q-51 0 -87 -41t-36 -103v-327q0 -61 36 -102.5t87 -41.5h164z" />
<glyph unicode="e" horiz-adv-x="1105" d="M1004 410h-605v-82q0 -61 36 -102.5t87 -41.5h428v-184h-520q-137 0 -232.5 95t-95.5 233v327q0 137 95.5 232.5t232.5 95.5h246q137 0 232.5 -95t95.5 -233v-245zM707 594v61q0 61 -36 102.5t-87 41.5h-62q-51 0 -87 -41t-36 -103v-61h308z" />
<glyph unicode="f" horiz-adv-x="819" d="M778 799h-276v-799h-297v799h-164v184h164v348q0 68 48 116t116 48h409v-184h-276v-328h276v-184z" />
<glyph unicode="g" horiz-adv-x="1105" d="M983 -246q0 -68 -48 -116t-116 -48h-596v185h463v225h-256q-137 0 -232.5 95t-95.5 233v327q0 137 95.5 232.5t232.5 95.5h553v-1229zM686 184v615h-164q-51 0 -87 -41t-36 -103v-327q0 -61 36 -102.5t87 -41.5h164z" />
<glyph unicode="h" horiz-adv-x="1126" d="M1004 0h-297v655q0 61 -36 102.5t-87 41.5h-164v-799h-297v1495h297v-512h256q137 0 232.5 -95t95.5 -233v-655z" />
<glyph unicode="i" horiz-adv-x="542" d="M420 1229h-297v266h297v-266zM420 0h-297v983h297v-983z" />
<glyph unicode="j" horiz-adv-x="542" d="M420 1229h-297v266h297v-266zM420 -246q0 -68 -48 -116t-116 -48h-256v185h123v1208h297v-1229z" />
<glyph unicode="k" horiz-adv-x="1167" d="M1106 983l-258 -410q94 -37 153.5 -119.5t59.5 -187.5v-266h-297v266q0 61 -36 102.5t-87 41.5h-219v-410h-299v1495h299v-901h100l244 389h340z" />
<glyph unicode="l" horiz-adv-x="542" d="M420 0h-297v1495h297v-1495z" />
<glyph unicode="m" horiz-adv-x="1669" d="M1546 0h-297v655q0 61 -35.5 102.5t-87.5 41.5h-143v-799h-297v799h-266v-799h-297v983h1096q137 0 232 -95t95 -233v-655z" />
<glyph unicode="n" horiz-adv-x="1126" d="M1004 0h-297v655q0 61 -36 102.5t-87 41.5h-164v-799h-297v983h553q137 0 232.5 -95t95.5 -233v-655z" />
<glyph unicode="o" horiz-adv-x="1105" d="M1004 328q0 -137 -95.5 -232.5t-232.5 -95.5h-246q-137 0 -232.5 95t-95.5 233v327q0 137 95.5 232.5t232.5 95.5h246q137 0 232.5 -95t95.5 -233v-327zM707 328v327q0 61 -36 102.5t-87 41.5h-62q-51 0 -87 -41t-36 -103v-327q0 -61 36 -102.5t87 -41.5h62q51 0 87 41.5 t36 102.5z" />
<glyph unicode="p" horiz-adv-x="1105" d="M1004 328q0 -137 -95.5 -232.5t-232.5 -95.5h-256v-410h-297v1393h553q137 0 232.5 -95t95.5 -233v-327zM707 328v327q0 61 -36 102.5t-87 41.5h-164v-615h164q51 0 87 41.5t36 102.5z" />
<glyph unicode="q" horiz-adv-x="1105" d="M983 -410h-297v410h-256q-137 0 -232.5 95t-95.5 233v327q0 137 95.5 232.5t232.5 95.5h225q137 0 232.5 -95t95.5 -233v-1065zM686 184v471q0 61 -36 102.5t-87 41.5h-41q-51 0 -87 -41t-36 -103v-327q0 -61 36 -102.5t87 -41.5h164z" />
<glyph unicode="r" horiz-adv-x="983" d="M922 573h-297v226h-205v-799h-297v983h635q68 0 116 -48t48 -116v-246z" />
<glyph unicode="s" horiz-adv-x="983" d="M881 164q0 -68 -48.5 -116t-115.5 -48h-580v184h447v226h-318q-68 0 -116 48t-48 115v246q0 68 48.5 116t115.5 48h580v-184h-447v-205h318q68 0 116 -48t48 -116v-266z" />
<glyph unicode="t" horiz-adv-x="839" d="M778 0h-389q-68 0 -116 48t-48 116v635h-164v184h164v328h297v-328h256v-184h-256v-615h256v-184z" />
<glyph unicode="u" horiz-adv-x="1085" d="M983 328q0 -137 -95 -232.5t-233 -95.5h-225q-137 0 -232.5 95t-95.5 233v655h297v-655q0 -61 36 -102.5t87 -41.5h41q51 0 87 41t36 103v655h297v-655z" />
<glyph unicode="v" horiz-adv-x="1126" d="M1004 328q0 -137 -95.5 -232.5t-232.5 -95.5h-553v983h297v-799h164q51 0 87 41t36 103v655h297v-655z" />
<glyph unicode="w" horiz-adv-x="1669" d="M1546 328q0 -137 -95 -232.5t-232 -95.5h-768q-137 0 -232.5 95t-95.5 233v655h297v-655q0 -61 36 -102.5t87 -41.5h143v799h297v-799h143q51 0 87 41t36 103v655h297v-655z" />
<glyph unicode="x" horiz-adv-x="1126" d="M1004 0h-297v328q0 37 -24 59.5t-58 22.5h-123q-35 0 -58.5 -22.5t-23.5 -59.5v-328h-297v260q0 84 48 149.5t124 94.5q-76 29 -124 95.5t-48 150.5v233h297v-309q0 -37 23.5 -59.5t58.5 -22.5h123q35 0 58.5 22.5t23.5 59.5v309h297v-233q0 -84 -48.5 -151t-124.5 -95 q76 -29 124.5 -94.5t48.5 -149.5v-260z" />
<glyph unicode="y" horiz-adv-x="1126" d="M1004 -246q0 -68 -48.5 -116t-115.5 -48h-256v185h123v225h-256q-137 0 -232.5 95t-95.5 233v655h297v-655q0 -61 36 -102.5t87 -41.5h164v799h297v-1229z" />
<glyph unicode="z" horiz-adv-x="1167" d="M1106 983l-565 -799h506v-184h-992l572 799h-504v184h983z" />
<glyph unicode="{" horiz-adv-x="655" d="M573 -410h-124q-135 0 -231.5 96.5t-96.5 231.5v514l-121 121l121 121v493q0 135 96 231.5t232 96.5h124v-184q-53 0 -91 -38t-38 -93v-455l-174 -172l174 -174v-473q0 -55 38 -93t91 -38v-185z" />
<glyph unicode="|" horiz-adv-x="696" d="M492 1495v-1905h-287v1905h287z" />
<glyph unicode="}" horiz-adv-x="655" d="M655 553l-120 -121v-514q0 -135 -96.5 -231.5t-231.5 -96.5h-125v185q53 0 91 37.5t38 93.5v473l174 174l-174 172v455q0 55 -38 93t-91 38v184h125q135 0 231.5 -96t96.5 -232v-493z" />
<glyph unicode="~" horiz-adv-x="1024" d="M922 655h-318v-20q0 -68 -48 -116t-116 -48h-338v184h318v21q0 68 48 116t116 48h338v-185z" />
<glyph unicode="&#xa2;" horiz-adv-x="901" d="M819 164h-172v-164h-272v164q-125 14 -209 106t-84 222v163q0 127 84 219.5t209 106.5v166h272v-164h172v-184h-317q-51 0 -87 -41t-36 -103v-163q0 -61 36 -102.5t87 -41.5h317v-184z" />
<glyph unicode="&#xa3;" horiz-adv-x="983" d="M901 328h-819v184h41q51 0 87 41t36 102v72h-164v184h164v72q0 137 95 232.5t232 95.5h248v-185h-155q-51 0 -87 -41t-36 -102v-72h276v-184h-276v-72q0 -74 -33 -143h391v-184z" />
<glyph unicode="&#xa5;" horiz-adv-x="1200" d="M1159 1311l-305 -492h166v-184h-270v-123h270v-184h-270v-328h-297v328h-273v184h273v123h-273v184h168l-307 492h328l231 -400l231 400h328z" />
<glyph unicode="&#xa9;" horiz-adv-x="1515" d="M1393 492q0 -203 -143.5 -347.5t-348.5 -144.5h-287q-205 0 -348 144.5t-143 347.5v327q0 205 143.5 348.5t347.5 143.5h287q205 0 348.5 -143.5t143.5 -348.5v-327zM1188 485v340q0 117 -87 198t-210 81h-266q-125 0 -212 -81t-87 -198v-340q0 -119 87 -199.5t212 -80.5 h266q123 0 210 80.5t87 199.5zM1024 328h-389q-68 0 -116 48t-48 116v327q0 68 47 116t117 48h389v-178h-301v-299h301v-178z" />
<glyph unicode="&#xad;" horiz-adv-x="696" d="M594 471h-492v205h492v-205z" />
<glyph unicode="&#xae;" horiz-adv-x="1126" d="M1014 1089.5q0 -186.5 -132 -318.5t-318.5 -132t-317.5 132t-131 318.5t131 317.5t317.5 131t318.5 -131t132 -317.5zM838 825v181q0 39 -26 68.5t-62 37.5v145q0 45 -32 77t-77 32h-319v-541h149v174h215v-174h152zM596 1114h-125v137h125v-137z" />
<glyph unicode="&#xb4;" horiz-adv-x="819" d="M676 1495l-219 -348h-201l219 348h201z" />
<glyph unicode="&#x2000;" horiz-adv-x="769" />
<glyph unicode="&#x2001;" horiz-adv-x="1538" />
<glyph unicode="&#x2002;" horiz-adv-x="769" />
<glyph unicode="&#x2003;" horiz-adv-x="1538" />
<glyph unicode="&#x2004;" horiz-adv-x="512" />
<glyph unicode="&#x2005;" horiz-adv-x="384" />
<glyph unicode="&#x2006;" horiz-adv-x="256" />
<glyph unicode="&#x2007;" horiz-adv-x="256" />
<glyph unicode="&#x2008;" horiz-adv-x="192" />
<glyph unicode="&#x2009;" horiz-adv-x="307" />
<glyph unicode="&#x200a;" horiz-adv-x="85" />
<glyph unicode="&#x2010;" horiz-adv-x="696" d="M594 471h-492v205h492v-205z" />
<glyph unicode="&#x2011;" horiz-adv-x="696" d="M594 471h-492v205h492v-205z" />
<glyph unicode="&#x2013;" horiz-adv-x="1105" d="M1004 471h-902v205h902v-205z" />
<glyph unicode="&#x2014;" horiz-adv-x="1638" d="M1538 471h-1436v205h1436v-205z" />
<glyph unicode="&#x2018;" horiz-adv-x="573" d="M492 983h-289l-162 512h287z" />
<glyph unicode="&#x2019;" horiz-adv-x="573" d="M532 1495l-161 -512h-289l164 512h286z" />
<glyph unicode="&#x201c;" horiz-adv-x="1044" d="M489 983h-286l-162 512h285zM963 983h-287l-162 512h285z" />
<glyph unicode="&#x201d;" horiz-adv-x="1024" d="M983 1495l-162 -512h-286l163 512h285zM530 1495l-161 -512h-287l164 512h284z" />
<glyph unicode="&#x2022;" horiz-adv-x="614" d="M471 819v-327h-328v327h328z" />
<glyph unicode="&#x2026;" horiz-adv-x="1515" d="M471 0h-328v287h328v-287zM928 0h-328v287h328v-287zM1382 0h-327v287h327v-287z" />
<glyph unicode="&#x202f;" horiz-adv-x="307" />
<glyph unicode="&#x205f;" horiz-adv-x="384" />
<glyph unicode="&#x20ac;" horiz-adv-x="1126" d="M1004 328h-353q-115 0 -203 69.5t-114 175.5h-252v185h242v123h-242v184h252q27 106 115 176t202 70h353v-185h-261q-51 0 -86.5 -41t-35.5 -102v-74h383v-184h-383v-70q0 -61 35.5 -102t86.5 -41h261v-184z" />
<glyph unicode="&#x2122;" horiz-adv-x="1540" d="M1458 737h-194v391q0 74 -66 74h-63v-465h-193v465h-129v-465h-195v574h623q90 0 153.5 -63.5t63.5 -153.5v-357zM520 1182h-133v-445h-192v445h-134v129h459v-129z" />
<glyph horiz-adv-x="450" />
</font>
</defs>
</svg>
